<?xml version="1.0" standalone="no"?>
<!DOCTYPE svg PUBLIC "-//W3C//DTD SVG 20010904//EN"
 "http://www.w3.org/TR/2001/REC-SVG-20010904/DTD/svg10.dtd">
<svg version="1.0" xmlns="http://www.w3.org/2000/svg"
 width="1080.000000pt" height="1049.000000pt" viewBox="0 0 1080.000000 1049.000000"
 preserveAspectRatio="xMidYMid meet">

<g transform="translate(0.000000,1049.000000) scale(0.100000,-0.100000)"
fill="#000000" stroke="none">
<path d="M5185 10100 c-252 -13 -371 -26 -655 -75 -707 -122 -1455 -451 -2045
-899 -277 -211 -573 -495 -796 -762 -282 -338 -562 -792 -714 -1155 -15 -35
-35 -82 -45 -104 -49 -110 -133 -358 -189 -560 -68 -243 -127 -584 -152 -870
-16 -183 -16 -624 0 -795 84 -925 411 -1777 962 -2508 400 -531 956 -1011
1529 -1319 159 -86 200 -106 347 -173 286 -130 626 -243 918 -305 44 -9 98
-20 120 -25 45 -10 186 -34 290 -49 340 -50 945 -50 1285 -1 115 17 254 40
295 49 22 5 76 17 120 26 302 64 638 177 935 312 480 219 891 492 1280 848
142 130 343 342 450 475 25 30 47 57 50 60 12 10 159 208 222 300 277 401 527
939 658 1415 33 121 56 221 100 435 15 71 49 329 61 463 16 167 16 609 0 792
-27 314 -81 612 -171 940 -115 418 -337 900 -605 1315 -275 424 -692 870
-1120 1196 -465 353 -1044 642 -1605 798 -352 98 -702 156 -1035 171 -283 12
-326 13 -490 5z m665 -256 c80 -8 159 -16 175 -19 440 -68 728 -145 1085 -286
261 -104 657 -315 876 -467 90 -63 228 -164 234 -171 3 -4 25 -22 50 -41 25
-19 59 -47 75 -61 17 -15 55 -48 85 -74 137 -119 361 -347 481 -490 522 -621
865 -1356 1009 -2155 49 -273 64 -459 64 -805 -1 -346 -12 -488 -65 -795 -143
-832 -537 -1634 -1120 -2279 -102 -113 -285 -292 -384 -376 -38 -33 -72 -62
-75 -65 -3 -3 -25 -21 -50 -40 -25 -19 -47 -37 -50 -41 -12 -15 -219 -164
-322 -232 -293 -193 -637 -362 -1018 -502 -246 -90 -683 -189 -950 -216 -256
-25 -342 -30 -550 -30 -216 0 -351 8 -600 36 -84 9 -317 50 -380 66 -19 4 -73
17 -120 28 -47 11 -139 37 -205 56 -66 20 -133 40 -150 45 -43 11 -275 101
-382 148 -253 113 -567 286 -747 412 -75 53 -241 176 -268 198 -12 11 -68 58
-123 103 -654 545 -1176 1344 -1423 2179 -76 256 -121 475 -163 800 -19 140
-22 215 -22 500 -1 347 7 451 54 750 68 438 217 896 425 1312 327 654 776
1186 1384 1642 338 254 744 470 1170 624 74 27 144 51 155 54 11 3 76 22 145
42 186 54 395 97 655 135 68 10 283 28 415 35 118 6 483 -5 630 -20z"/>
<path d="M5825 9478 c-2 -7 -11 -60 -20 -118 -18 -118 -64 -418 -125 -802 -22
-142 -40 -268 -40 -281 0 -22 6 -24 128 -41 70 -10 145 -22 167 -27 78 -17 82
-15 90 44 9 69 107 697 159 1017 27 167 28 164 -57 175 -45 6 -148 22 -265 41
-21 3 -34 1 -37 -8z"/>
<path d="M4565 9435 c-38 -7 -117 -21 -175 -30 -57 -9 -107 -18 -110 -20 -4
-2 4 -71 17 -152 12 -81 27 -179 32 -218 6 -38 24 -158 40 -265 16 -107 43
-284 60 -394 16 -109 31 -200 33 -201 2 -2 28 1 58 6 298 46 394 61 510 78
311 46 393 60 401 68 4 4 2 40 -5 78 -8 39 -17 97 -21 131 -3 33 -10 66 -15
73 -9 15 -19 14 -362 -39 -115 -18 -214 -30 -221 -27 -9 3 -20 48 -31 124 -10
65 -26 172 -36 238 -11 66 -33 212 -50 325 -33 220 -38 241 -48 239 -4 -1 -38
-7 -77 -14z"/>
<path d="M6879 9188 c-39 -66 -73 -126 -204 -358 -23 -41 -96 -167 -161 -280
-167 -291 -205 -363 -197 -371 21 -21 255 -149 263 -144 5 3 107 177 226 387
120 210 220 376 222 370 3 -11 -13 -71 -163 -617 -36 -132 -64 -249 -63 -259
2 -13 40 -41 113 -83 61 -34 115 -63 121 -63 9 0 209 203 559 568 49 52 91 89
93 84 2 -6 -92 -177 -208 -381 -117 -204 -214 -379 -216 -388 -3 -14 24 -34
123 -89 69 -40 131 -70 137 -68 6 2 36 48 66 101 30 54 67 118 81 143 14 25
46 81 71 125 25 44 125 219 222 389 142 248 174 312 164 321 -7 7 -105 65
-218 129 l-205 117 -109 -113 c-210 -217 -402 -413 -418 -426 -18 -14 -14 -1
131 528 28 102 51 190 51 197 0 11 -52 43 -220 136 -30 17 -88 50 -128 74 -41
24 -77 43 -82 43 -4 0 -27 -33 -51 -72z"/>
<path d="M3365 8950 c-181 -27 -440 -209 -522 -366 -91 -172 -83 -352 24 -556
136 -259 338 -401 568 -400 124 0 233 41 390 146 212 142 296 324 250 547 -9
46 -21 89 -26 95 -10 12 -21 9 -241 -57 -54 -16 -98 -31 -98 -32 0 -1 7 -24
15 -51 18 -58 19 -133 4 -173 -28 -75 -145 -153 -229 -153 -59 0 -136 44 -187
107 -21 26 -40 50 -43 53 -18 18 -64 95 -92 155 -27 58 -33 81 -32 135 1 77
19 119 78 173 48 43 130 72 179 62 17 -4 56 -18 86 -33 l53 -26 114 119 c63
66 114 122 114 126 0 6 -44 37 -100 71 -80 48 -210 73 -305 58z"/>
<path d="M5150 7216 c0 -190 -3 -347 -7 -349 -5 -3 -102 87 -217 199 -115 113
-215 204 -221 202 -19 -5 -205 -184 -205 -198 0 -7 143 -156 318 -332 174
-175 320 -329 324 -341 8 -28 10 -560 2 -581 -3 -9 -14 -16 -23 -16 -27 0
-115 -45 -153 -79 -20 -17 -42 -31 -49 -31 -7 0 -92 45 -189 99 -96 54 -197
111 -225 126 -63 35 -103 72 -119 110 -7 17 -32 107 -55 200 -24 94 -53 206
-66 250 -13 44 -37 134 -55 200 -49 189 -48 185 -79 185 -16 0 -74 -13 -129
-30 -56 -16 -108 -30 -117 -30 -9 0 -18 -6 -21 -14 -6 -15 21 -128 66 -276 25
-85 70 -260 70 -274 0 -26 -76 11 -305 149 -195 117 -292 168 -305 160 -19
-12 -145 -253 -137 -262 12 -11 179 -110 337 -198 58 -33 136 -79 174 -103 80
-51 78 -58 -22 -84 -76 -19 -304 -81 -404 -110 -38 -10 -68 -24 -68 -31 0 -7
14 -57 30 -112 16 -55 30 -115 30 -132 0 -44 18 -45 163 -8 99 26 121 32 327
94 217 65 331 91 396 91 55 0 68 -5 140 -48 43 -27 137 -79 207 -117 70 -38
141 -81 157 -97 30 -28 30 -28 30 -146 0 -80 -4 -123 -12 -133 -15 -18 -397
-241 -464 -271 -51 -22 -50 -22 -194 18 -52 14 -135 37 -185 51 -49 13 -132
35 -182 49 -51 13 -103 28 -115 33 -38 14 -191 50 -228 53 -33 3 -35 1 -38
-32 -2 -19 -17 -81 -33 -138 -16 -56 -27 -107 -24 -112 6 -11 56 -25 300 -90
143 -38 232 -63 244 -70 10 -5 -15 -25 -85 -65 -54 -32 -130 -77 -169 -100
-38 -22 -123 -72 -187 -110 -65 -38 -120 -75 -123 -83 -7 -19 119 -256 139
-260 22 -5 127 50 345 181 281 169 276 169 237 21 -50 -193 -84 -320 -101
-377 -9 -31 -15 -62 -13 -68 5 -16 282 -89 293 -77 4 3 22 64 41 134 19 71 50
185 69 254 19 69 52 193 73 275 21 83 47 168 57 189 23 47 62 72 446 284 l75
41 50 -37 c44 -33 117 -70 167 -86 16 -5 17 -28 17 -291 0 -226 -3 -292 -14
-313 -8 -15 -49 -60 -93 -100 -69 -65 -462 -453 -529 -524 l-27 -27 104 -106
c56 -58 106 -104 109 -103 4 2 100 93 214 203 114 110 211 202 217 203 5 2 9
-74 9 -190 0 -106 3 -264 7 -350 l6 -158 66 0 c36 0 72 4 78 8 10 7 12 473 10
2278 l-2 2269 -77 3 -78 3 0 -345z"/>
<path d="M5720 7543 c0 -5 9 -66 20 -137 23 -147 25 -208 9 -308 -28 -178
-116 -329 -241 -409 -83 -54 -78 2 -78 -867 0 -483 4 -773 10 -777 19 -12 110
46 174 110 86 86 123 162 138 283 7 51 16 92 21 92 6 0 40 -31 77 -70 134
-138 203 -337 181 -528 -10 -95 -25 -145 -79 -270 -22 -52 -32 -86 -26 -92 6
-6 37 9 84 40 70 46 144 81 231 109 85 27 289 2 289 -35 0 -7 -26 -31 -58 -53
-101 -68 -179 -159 -225 -262 -41 -89 -62 -161 -126 -424 -57 -234 -112 -347
-226 -460 -93 -94 -199 -157 -332 -200 -48 -15 -98 -32 -110 -36 -22 -8 -23
-13 -23 -123 0 -63 4 -117 9 -120 9 -6 109 8 176 23 169 40 237 59 355 101
475 170 713 339 860 613 116 216 144 371 140 777 -4 521 -4 552 14 650 20 114
63 240 110 323 72 129 232 271 379 337 42 19 77 40 77 47 0 7 -25 20 -56 29
-31 9 -88 29 -127 45 -106 44 -213 59 -416 59 -252 0 -354 -30 -559 -162 -34
-23 -66 -38 -69 -34 -8 7 4 90 42 301 116 644 -58 1087 -546 1394 -62 38 -99
51 -99 34z"/>
<path d="M8428 3973 c-14 -16 -85 -126 -113 -175 -5 -9 -57 -90 -114 -180
-244 -382 -253 -398 -242 -411 6 -8 57 -42 113 -77 57 -35 146 -92 198 -125
52 -34 196 -126 320 -205 124 -78 237 -151 252 -161 36 -25 55 -24 69 4 7 12
33 54 58 93 25 38 51 78 56 87 6 9 88 139 184 289 96 150 174 279 175 287 1
13 -177 141 -195 141 -4 0 -77 -110 -164 -245 -86 -135 -161 -245 -167 -245
-14 0 -153 87 -168 105 -9 10 5 38 63 127 138 210 207 322 205 330 -2 4 -43
32 -92 63 -72 45 -92 53 -102 43 -6 -7 -52 -76 -101 -153 -49 -77 -109 -170
-133 -207 -23 -38 -46 -68 -50 -68 -14 0 -132 75 -137 87 -3 6 11 36 30 65
153 235 267 422 260 429 -8 8 -183 119 -188 119 -1 0 -9 -8 -17 -17z"/>
<path d="M2085 3761 c-131 -38 -294 -147 -368 -249 -20 -27 -52 -80 -69 -118
-31 -65 -33 -76 -33 -179 0 -96 4 -120 28 -186 55 -151 176 -313 307 -411 34
-26 210 -118 225 -118 8 0 208 125 323 202 39 27 72 54 72 60 0 6 -35 66 -79
132 -43 67 -104 160 -135 208 -31 48 -60 89 -66 93 -10 6 -159 -85 -179 -109
-9 -11 0 -33 44 -100 30 -47 55 -91 55 -98 0 -7 -18 -23 -40 -36 l-40 -22 -42
21 c-64 33 -152 128 -172 185 -34 101 -16 178 62 257 53 55 166 129 231 152
115 40 230 2 290 -96 43 -70 51 -134 22 -189 -26 -49 -32 -39 104 -184 l100
-108 29 34 c15 18 40 58 55 88 23 48 26 67 26 155 -1 94 -3 105 -37 177 -80
170 -209 333 -311 392 -117 67 -269 86 -402 47z"/>
<path d="M7575 2808 c-129 -43 -288 -143 -393 -246 -190 -189 -204 -452 -37
-701 162 -241 412 -334 650 -242 149 57 340 216 419 346 47 79 96 185 96 209
0 9 -36 66 -79 128 -44 62 -95 135 -113 162 -18 26 -44 61 -58 77 l-25 29 -57
-43 c-32 -23 -127 -91 -213 -151 -113 -80 -154 -114 -150 -125 10 -25 118
-171 127 -171 4 0 47 27 96 61 l87 60 28 -32 c36 -44 34 -65 -11 -135 -44 -68
-89 -109 -147 -135 -137 -61 -252 -7 -372 174 -63 95 -87 175 -73 242 14 64
51 117 108 155 69 45 123 51 200 19 l33 -14 109 113 c61 61 110 117 110 124 0
18 -73 61 -147 87 -63 22 -138 26 -188 9z"/>
<path d="M2966 2317 c-259 -193 -471 -356 -473 -362 -1 -5 35 -34 80 -62 45
-29 107 -69 137 -88 30 -19 58 -35 63 -35 5 0 39 25 75 55 37 30 71 55 77 55
11 0 245 -145 300 -186 l28 -21 -22 -86 c-13 -47 -20 -91 -16 -97 6 -10 111
-79 230 -152 33 -20 63 -33 66 -30 3 4 22 86 42 182 20 96 52 252 72 345 20
94 43 202 50 240 8 39 30 143 49 232 l34 163 -37 22 c-20 12 -86 55 -148 95
-61 40 -118 75 -125 78 -7 3 -224 -154 -482 -348z m434 -122 c-15 -55 -38
-137 -50 -183 -13 -49 -27 -82 -34 -80 -29 8 -186 114 -183 125 3 18 281 252
289 245 4 -4 -6 -52 -22 -107z"/>
<path d="M4305 2149 c-2 -8 -25 -131 -49 -274 -25 -143 -66 -376 -91 -519 -25
-142 -45 -267 -45 -276 0 -14 11 -20 43 -25 23 -3 74 -13 112 -20 102 -20 185
-28 185 -20 0 29 74 422 81 429 13 14 95 -22 113 -49 15 -23 64 -159 127 -352
16 -51 35 -95 41 -99 22 -14 378 -72 378 -62 0 2 -29 92 -64 200 -64 197 -97
264 -152 307 -28 22 -25 41 6 41 41 0 133 43 171 81 64 63 93 137 93 239 0 89
-9 119 -61 188 -48 65 -174 111 -398 146 -49 8 -117 20 -150 26 -293 54 -333
58 -340 39z m423 -284 c46 -8 99 -22 118 -31 68 -32 81 -114 27 -168 -24 -24
-32 -26 -122 -26 -53 0 -113 5 -133 11 -44 12 -45 15 -23 139 8 47 15 86 15
88 0 5 39 1 118 -13z"/>
<path d="M6235 2133 c-50 -10 -245 -56 -292 -69 -49 -14 -53 -17 -53 -45 0
-16 -7 -73 -15 -127 -8 -53 -21 -151 -30 -217 -8 -66 -36 -269 -60 -452 -25
-182 -45 -336 -45 -342 0 -6 10 -9 23 -7 101 21 267 60 289 68 29 11 35 33 41
143 2 48 4 51 38 62 20 6 70 19 110 28 41 9 92 21 114 26 22 5 58 12 81 15 46
7 56 -2 109 -104 20 -38 32 -51 44 -47 9 2 39 10 66 15 28 6 70 15 95 21 125
26 159 35 165 40 7 8 -15 59 -27 59 -4 0 -8 4 -8 9 0 5 -82 132 -182 283 -99
150 -235 355 -302 455 -67 100 -125 184 -131 186 -5 2 -19 2 -30 0z m-33 -421
c21 -34 38 -64 38 -66 0 -3 23 -43 50 -91 48 -83 60 -115 42 -115 -5 0 -51 -9
-102 -20 -51 -11 -97 -20 -102 -20 -11 0 -10 93 2 247 12 136 18 170 28 143 3
-8 23 -43 44 -78z"/>
<path d="M0 15 c0 -13 607 -15 5400 -15 4793 0 5400 2 5400 15 0 13 -607 15
-5400 15 -4793 0 -5400 -2 -5400 -15z"/>
</g>
</svg>
